<mxfile host="app.diagrams.net" modified="2022-06-24T09:26:32.419Z" agent="5.0 (Macintosh; Intel Mac OS X 10_15_7) AppleWebKit/537.36 (KHTML, like Gecko) Chrome/101.0.0.0 Safari/537.36" etag="vM3P2JiLHFOdqcZp30_Y" version="20.0.3" type="github">
  <diagram id="LsfKz9xEiHTjwQYNalZ0" name="Page-1">
    <mxGraphModel dx="875" dy="763" grid="1" gridSize="10" guides="1" tooltips="1" connect="1" arrows="1" fold="1" page="1" pageScale="1" pageWidth="850" pageHeight="1100" math="0" shadow="0">
      <root>
        <mxCell id="0" />
        <mxCell id="1" parent="0" />
        <mxCell id="d1nthGIvyw4kQUc58HfT-1" value="Hardware Layer" style="rounded=0;whiteSpace=wrap;html=1;strokeWidth=1;fillColor=#eeeeee;strokeColor=#36393d;fontSize=13;" vertex="1" parent="1">
          <mxGeometry x="280" y="280" width="200" height="40" as="geometry" />
        </mxCell>
        <mxCell id="d1nthGIvyw4kQUc58HfT-2" value="Application Layer" style="rounded=0;whiteSpace=wrap;html=1;" vertex="1" parent="1">
          <mxGeometry x="280" y="80" width="200" height="160" as="geometry" />
        </mxCell>
        <mxCell id="d1nthGIvyw4kQUc58HfT-4" value="Media Layer" style="rounded=0;whiteSpace=wrap;html=1;" vertex="1" parent="1">
          <mxGeometry x="280" y="240" width="200" height="40" as="geometry" />
        </mxCell>
        <mxCell id="d1nthGIvyw4kQUc58HfT-6" value="Vendors Layer" style="rounded=0;whiteSpace=wrap;html=1;" vertex="1" parent="1">
          <mxGeometry x="340" y="200" width="140" height="40" as="geometry" />
        </mxCell>
        <mxCell id="d1nthGIvyw4kQUc58HfT-7" value="" style="shape=mxgraph.signs.tech.video_camera;html=1;pointerEvents=1;fillColor=#000000;strokeColor=none;verticalLabelPosition=bottom;verticalAlign=top;align=center;" vertex="1" parent="1">
          <mxGeometry x="438" y="296" width="30" height="10" as="geometry" />
        </mxCell>
        <mxCell id="d1nthGIvyw4kQUc58HfT-11" value="" style="shape=actor;whiteSpace=wrap;html=1;" vertex="1" parent="1">
          <mxGeometry x="230" y="80" width="30" height="40" as="geometry" />
        </mxCell>
      </root>
    </mxGraphModel>
  </diagram>
</mxfile>
